<svg xmlns="http://www.w3.org/2000/svg" xmlns:xlink="http://www.w3.org/1999/xlink" width="600" height="200" preserveAspectRatio="xMidYMid meet" version="1.0" viewBox="0 0 450 150" zoomAndPan="magnify"><defs><clipPath id="6d4e71bf2f"><path d="M 0.199219 22 L 35 22 L 35 118.160156 L 0.199219 118.160156 Z M 0.199219 22" clip-rule="nonzero"/></clipPath><clipPath id="a90243dbc4"><path d="M 0.199219 0.558594 L 78 0.558594 L 78 84 L 0.199219 84 Z M 0.199219 0.558594" clip-rule="nonzero"/></clipPath><clipPath id="e730382947"><path d="M 16 0.558594 L 122 0.558594 L 122 84 L 16 84 Z M 16 84 Z M 16 0.558594" clip-rule="nonzero"/></clipPath><clipPath id="5cc6576148"><path d="M 60 22 L 124 22 L 124 118.160156 L 60 118.160156 Z M 60 22" clip-rule="nonzero"/></clipPath><clipPath id="6ed9c235d3"><path d="M 117 0.558594 L 124 0.558594 L 124 118 L 117 118 Z M 117 0.558594" clip-rule="nonzero"/></clipPath><clipPath id="6a763c0f99"><rect width="381" height="119" x="0" y="0"/></clipPath></defs><g><g clip-path="url(#6a763c0f99)" transform="matrix(1, 0, 0, 1, 19, 16)"><g fill="#3d3b3a" fill-opacity="1"><g><g><path d="M 2.9375 0 L 2.9375 -20.203125 L 15.203125 -20.203125 L 15.203125 -17.828125 L 5.484375 -17.828125 L 5.484375 -11.453125 L 14.484375 -11.453125 L 14.484375 -9.125 L 5.484375 -9.125 L 5.484375 -2.359375 L 15.53125 -2.359375 L 15.53125 0 Z M 2.9375 0" transform="translate(146.016005, 54.404765)"/></g></g></g><g fill="#3d3b3a" fill-opacity="1"><g><g><path d="M 2.9375 0 L 2.9375 -20.203125 L 10.65625 -20.203125 C 12.050781 -20.203125 13.269531 -19.9375 14.3125 -19.40625 C 15.351562 -18.875 16.160156 -18.128906 16.734375 -17.171875 C 17.316406 -16.210938 17.609375 -15.054688 17.609375 -13.703125 C 17.609375 -12.066406 17.179688 -10.710938 16.328125 -9.640625 C 15.484375 -8.578125 14.320312 -7.863281 12.84375 -7.5 L 17.921875 0 L 14.859375 0 L 9.921875 -7.25 L 5.484375 -7.25 L 5.484375 0 Z M 5.484375 -9.671875 L 10.359375 -9.671875 C 11.835938 -9.671875 12.976562 -10.019531 13.78125 -10.71875 C 14.59375 -11.425781 15 -12.421875 15 -13.703125 C 15 -14.992188 14.59375 -15.992188 13.78125 -16.703125 C 12.976562 -17.421875 11.835938 -17.78125 10.359375 -17.78125 L 5.484375 -17.78125 Z M 5.484375 -9.671875" transform="translate(166.299894, 54.404765)"/></g></g></g><g fill="#3d3b3a" fill-opacity="1"><g><g><path d="M 2.9375 0 L 2.9375 -20.203125 L 5.484375 -20.203125 L 5.484375 0 Z M 2.9375 0" transform="translate(188.834267, 54.404765)"/></g></g></g><g fill="#3d3b3a" fill-opacity="1"><g><g><path d="M 9.671875 0.375 C 8.054688 0.375 6.65625 0.101562 5.46875 -0.4375 C 4.28125 -0.988281 3.363281 -1.757812 2.71875 -2.75 C 2.082031 -3.75 1.753906 -4.898438 1.734375 -6.203125 L 4.265625 -6.203125 C 4.304688 -4.910156 4.820312 -3.894531 5.8125 -3.15625 C 6.800781 -2.414062 8.085938 -2.046875 9.671875 -2.046875 C 11.085938 -2.046875 12.210938 -2.320312 13.046875 -2.875 C 13.890625 -3.4375 14.3125 -4.21875 14.3125 -5.21875 C 14.3125 -6.164062 13.90625 -6.921875 13.09375 -7.484375 C 12.289062 -8.054688 10.972656 -8.550781 9.140625 -8.96875 C 6.660156 -9.570312 4.84375 -10.335938 3.6875 -11.265625 C 2.539062 -12.203125 1.96875 -13.445312 1.96875 -15 C 1.96875 -16.71875 2.613281 -18.078125 3.90625 -19.078125 C 5.207031 -20.078125 6.960938 -20.578125 9.171875 -20.578125 C 11.441406 -20.578125 13.234375 -20.007812 14.546875 -18.875 C 15.867188 -17.738281 16.539062 -16.191406 16.5625 -14.234375 L 14.046875 -14.234375 C 14.035156 -15.441406 13.59375 -16.394531 12.71875 -17.09375 C 11.84375 -17.800781 10.660156 -18.15625 9.171875 -18.15625 C 7.734375 -18.15625 6.601562 -17.867188 5.78125 -17.296875 C 4.96875 -16.734375 4.5625 -15.96875 4.5625 -15 C 4.5625 -14.175781 4.941406 -13.476562 5.703125 -12.90625 C 6.460938 -12.34375 7.820312 -11.820312 9.78125 -11.34375 C 12.363281 -10.707031 14.203125 -9.910156 15.296875 -8.953125 C 16.390625 -8.003906 16.9375 -6.789062 16.9375 -5.3125 C 16.9375 -3.5625 16.273438 -2.175781 14.953125 -1.15625 C 13.640625 -0.132812 11.878906 0.375 9.671875 0.375 Z M 9.671875 0.375" transform="translate(200.145069, 54.404765)"/></g></g></g><g fill="#3d3b3a" fill-opacity="1"><g><g><path d="M 2.9375 0 L 2.9375 -20.203125 L 15.203125 -20.203125 L 15.203125 -17.828125 L 5.484375 -17.828125 L 5.484375 -11.453125 L 14.484375 -11.453125 L 14.484375 -9.125 L 5.484375 -9.125 L 5.484375 -2.359375 L 15.53125 -2.359375 L 15.53125 0 Z M 2.9375 0" transform="translate(146.016005, 82.85568)"/></g></g></g><g fill="#3d3b3a" fill-opacity="1"><g><g><path d="M 2.9375 0 L 2.9375 -20.203125 L 5.34375 -20.203125 L 16.5 -4.390625 L 16.5 -20.203125 L 18.984375 -20.203125 L 18.984375 0 L 16.625 0 L 5.453125 -15.8125 L 5.453125 0 Z M 2.9375 0" transform="translate(166.299894, 82.85568)"/></g></g></g><g fill="#3d3b3a" fill-opacity="1"><g><g><path d="M 11.953125 0.375 C 10.460938 0.375 9.09375 0.113281 7.84375 -0.40625 C 6.59375 -0.925781 5.503906 -1.648438 4.578125 -2.578125 C 3.660156 -3.515625 2.945312 -4.625 2.4375 -5.90625 C 1.925781 -7.1875 1.671875 -8.582031 1.671875 -10.09375 C 1.671875 -11.613281 1.921875 -13.007812 2.421875 -14.28125 C 2.921875 -15.550781 3.628906 -16.65625 4.546875 -17.59375 C 5.472656 -18.539062 6.554688 -19.273438 7.796875 -19.796875 C 9.046875 -20.316406 10.410156 -20.578125 11.890625 -20.578125 C 13.429688 -20.578125 14.851562 -20.296875 16.15625 -19.734375 C 17.46875 -19.179688 18.597656 -18.40625 19.546875 -17.40625 C 20.503906 -16.40625 21.191406 -15.238281 21.609375 -13.90625 L 18.84375 -13.90625 C 18.207031 -15.21875 17.289062 -16.234375 16.09375 -16.953125 C 14.90625 -17.671875 13.535156 -18.03125 11.984375 -18.03125 C 10.472656 -18.03125 9.132812 -17.691406 7.96875 -17.015625 C 6.8125 -16.347656 5.90625 -15.414062 5.25 -14.21875 C 4.59375 -13.03125 4.265625 -11.65625 4.265625 -10.09375 C 4.265625 -8.539062 4.597656 -7.164062 5.265625 -5.96875 C 5.929688 -4.78125 6.84375 -3.847656 8 -3.171875 C 9.164062 -2.503906 10.5 -2.171875 12 -2.171875 C 13.363281 -2.171875 14.578125 -2.4375 15.640625 -2.96875 C 16.703125 -3.507812 17.5625 -4.253906 18.21875 -5.203125 C 18.882812 -6.160156 19.304688 -7.273438 19.484375 -8.546875 L 11.25 -8.546875 L 11.25 -10.96875 L 22.21875 -10.96875 C 22.257812 -8.75 21.851562 -6.789062 21 -5.09375 C 20.144531 -3.394531 18.941406 -2.054688 17.390625 -1.078125 C 15.835938 -0.109375 14.023438 0.375 11.953125 0.375 Z M 11.953125 0.375" transform="translate(191.113599, 82.85568)"/></g></g></g><g fill="#3d3b3a" fill-opacity="1"><g><g><path d="M 2.9375 0 L 2.9375 -20.203125 L 5.484375 -20.203125 L 5.484375 0 Z M 2.9375 0" transform="translate(217.802704, 82.85568)"/></g></g></g><g fill="#3d3b3a" fill-opacity="1"><g><g><path d="M 2.9375 0 L 2.9375 -20.203125 L 5.34375 -20.203125 L 16.5 -4.390625 L 16.5 -20.203125 L 18.984375 -20.203125 L 18.984375 0 L 16.625 0 L 5.453125 -15.8125 L 5.453125 0 Z M 2.9375 0" transform="translate(229.113506, 82.85568)"/></g></g></g><g fill="#3d3b3a" fill-opacity="1"><g><g><path d="M 2.9375 0 L 2.9375 -20.203125 L 15.203125 -20.203125 L 15.203125 -17.828125 L 5.484375 -17.828125 L 5.484375 -11.453125 L 14.484375 -11.453125 L 14.484375 -9.125 L 5.484375 -9.125 L 5.484375 -2.359375 L 15.53125 -2.359375 L 15.53125 0 Z M 2.9375 0" transform="translate(253.927211, 82.85568)"/></g></g></g><g fill="#3d3b3a" fill-opacity="1"><g><g><path d="M 2.9375 0 L 2.9375 -20.203125 L 15.203125 -20.203125 L 15.203125 -17.828125 L 5.484375 -17.828125 L 5.484375 -11.453125 L 14.484375 -11.453125 L 14.484375 -9.125 L 5.484375 -9.125 L 5.484375 -2.359375 L 15.53125 -2.359375 L 15.53125 0 Z M 2.9375 0" transform="translate(274.211101, 82.85568)"/></g></g></g><g fill="#3d3b3a" fill-opacity="1"><g><g><path d="M 2.9375 0 L 2.9375 -20.203125 L 10.65625 -20.203125 C 12.050781 -20.203125 13.269531 -19.9375 14.3125 -19.40625 C 15.351562 -18.875 16.160156 -18.128906 16.734375 -17.171875 C 17.316406 -16.210938 17.609375 -15.054688 17.609375 -13.703125 C 17.609375 -12.066406 17.179688 -10.710938 16.328125 -9.640625 C 15.484375 -8.578125 14.320312 -7.863281 12.84375 -7.5 L 17.921875 0 L 14.859375 0 L 9.921875 -7.25 L 5.484375 -7.25 L 5.484375 0 Z M 5.484375 -9.671875 L 10.359375 -9.671875 C 11.835938 -9.671875 12.976562 -10.019531 13.78125 -10.71875 C 14.59375 -11.425781 15 -12.421875 15 -13.703125 C 15 -14.992188 14.59375 -15.992188 13.78125 -16.703125 C 12.976562 -17.421875 11.835938 -17.78125 10.359375 -17.78125 L 5.484375 -17.78125 Z M 5.484375 -9.671875" transform="translate(294.49499, 82.85568)"/></g></g></g><g fill="#3d3b3a" fill-opacity="1"><g><g><path d="M 2.9375 0 L 2.9375 -20.203125 L 5.484375 -20.203125 L 5.484375 0 Z M 2.9375 0" transform="translate(317.029363, 82.85568)"/></g></g></g><g fill="#3d3b3a" fill-opacity="1"><g><g><path d="M 2.9375 0 L 2.9375 -20.203125 L 5.34375 -20.203125 L 16.5 -4.390625 L 16.5 -20.203125 L 18.984375 -20.203125 L 18.984375 0 L 16.625 0 L 5.453125 -15.8125 L 5.453125 0 Z M 2.9375 0" transform="translate(328.340166, 82.85568)"/></g></g></g><g fill="#3d3b3a" fill-opacity="1"><g><g><path d="M 11.953125 0.375 C 10.460938 0.375 9.09375 0.113281 7.84375 -0.40625 C 6.59375 -0.925781 5.503906 -1.648438 4.578125 -2.578125 C 3.660156 -3.515625 2.945312 -4.625 2.4375 -5.90625 C 1.925781 -7.1875 1.671875 -8.582031 1.671875 -10.09375 C 1.671875 -11.613281 1.921875 -13.007812 2.421875 -14.28125 C 2.921875 -15.550781 3.628906 -16.65625 4.546875 -17.59375 C 5.472656 -18.539062 6.554688 -19.273438 7.796875 -19.796875 C 9.046875 -20.316406 10.410156 -20.578125 11.890625 -20.578125 C 13.429688 -20.578125 14.851562 -20.296875 16.15625 -19.734375 C 17.46875 -19.179688 18.597656 -18.40625 19.546875 -17.40625 C 20.503906 -16.40625 21.191406 -15.238281 21.609375 -13.90625 L 18.84375 -13.90625 C 18.207031 -15.21875 17.289062 -16.234375 16.09375 -16.953125 C 14.90625 -17.671875 13.535156 -18.03125 11.984375 -18.03125 C 10.472656 -18.03125 9.132812 -17.691406 7.96875 -17.015625 C 6.8125 -16.347656 5.90625 -15.414062 5.25 -14.21875 C 4.59375 -13.03125 4.265625 -11.65625 4.265625 -10.09375 C 4.265625 -8.539062 4.597656 -7.164062 5.265625 -5.96875 C 5.929688 -4.78125 6.84375 -3.847656 8 -3.171875 C 9.164062 -2.503906 10.5 -2.171875 12 -2.171875 C 13.363281 -2.171875 14.578125 -2.4375 15.640625 -2.96875 C 16.703125 -3.507812 17.5625 -4.253906 18.21875 -5.203125 C 18.882812 -6.160156 19.304688 -7.273438 19.484375 -8.546875 L 11.25 -8.546875 L 11.25 -10.96875 L 22.21875 -10.96875 C 22.257812 -8.75 21.851562 -6.789062 21 -5.09375 C 20.144531 -3.394531 18.941406 -2.054688 17.390625 -1.078125 C 15.835938 -0.109375 14.023438 0.375 11.953125 0.375 Z M 11.953125 0.375" transform="translate(353.153871, 82.85568)"/></g></g></g><g clip-path="url(#6d4e71bf2f)"><path fill="none" stroke="#3d3b3a" stroke-linecap="round" stroke-linejoin="miter" stroke-miterlimit="4" stroke-opacity="1" stroke-width="6" d="M 2.999218 2.998013 L 53.205663 2.999334" transform="matrix(-0.0118503, -0.917695, 0.917695, -0.0118503, 1.057718, 102.600394)"/></g><g clip-path="url(#a90243dbc4)"><path fill="none" stroke="#3d3b3a" stroke-linecap="round" stroke-linejoin="miter" stroke-miterlimit="4" stroke-opacity="1" stroke-width="6" d="M 3.00025 3.001775 L 61.398442 2.999578" transform="matrix(0.727449, -0.559574, 0.559574, 0.727449, 0.340882, 51.647567)"/></g><g clip-path="url(#e730382947)"><path fill="none" stroke="#3d3b3a" stroke-linecap="round" stroke-linejoin="miter" stroke-miterlimit="4" stroke-opacity="1" stroke-width="6" d="M 2.99763 2.999176 L 61.787005 3.000687" transform="matrix(0.728515, 0.558184, -0.558184, 0.728515, 47.330117, 15.399636)"/></g><path fill="none" stroke="#3d3b3a" stroke-linecap="butt" stroke-linejoin="miter" stroke-miterlimit="4" stroke-opacity="1" stroke-width="6" d="M 0.0017317 3.00109 L 16.452076 3.00109" transform="matrix(0, -0.917771, 0.917771, 0, 15.089435, 42.134402)"/><g clip-path="url(#5cc6576148)"><path fill="none" stroke="#3d3b3a" stroke-linecap="round" stroke-linejoin="miter" stroke-miterlimit="4" stroke-opacity="1" stroke-width="6" d="M 2.999204 2.99909 L 53.205649 3.000411" transform="matrix(-0.0118503, -0.917695, 0.917695, -0.0118503, 89.306729, 102.600394)"/></g><path fill="none" stroke="#3d3b3a" stroke-linecap="butt" stroke-linejoin="miter" stroke-miterlimit="4" stroke-opacity="1" stroke-width="6" d="M -0.00207759 2.99858 L 11.545085 2.99858" transform="matrix(0, -0.917771, 0.917771, 0, 19.369082, 37.630906)"/><g clip-path="url(#6ed9c235d3)"><path fill="none" stroke="#3d3b3a" stroke-linecap="round" stroke-linejoin="miter" stroke-miterlimit="4" stroke-opacity="1" stroke-width="6" d="M 2.998453 3.000293 L 124.177688 3.000293" transform="matrix(0, 0.917771, -0.917771, 0, 123.06999, 0.642637)"/></g></g></g></svg>
